<?xml version="1.0" encoding="UTF-8"?>
<svg version="1.1" xmlns="http://www.w3.org/2000/svg" width="214" height="214" viewBox="0 0 214 214">
<circle cx="107" cy="107" r="107" fill="#000001"/>
<g transform="translate(0,15)">
<path d="M0 0 C0.90752014 -0.00014603 1.81504028 -0.00029205 2.75006104 -0.0004425 C5.75307598 0.00025478 8.75602908 0.00803863 11.7590332 0.01586914 C13.83982815 0.01773397 15.92062353 0.01915757 18.00141907 0.02015686 C23.48081675 0.0239769 28.96018797 0.03380284 34.4395752 0.04486084 C40.02978151 0.05508596 45.6199921 0.05965685 51.21020508 0.06469727 C62.18092171 0.07542554 73.15161174 0.09301822 84.12231445 0.11352539 C84.12231445 9.02352539 84.12231445 17.93352539 84.12231445 27.11352539 C56.73231445 27.11352539 29.34231445 27.11352539 1.12231445 27.11352539 C1.12231445 30.74352539 1.12231445 34.37352539 1.12231445 38.11352539 C21.25231445 38.11352539 41.38231445 38.11352539 62.12231445 38.11352539 C62.12231445 48.67352539 62.12231445 59.23352539 62.12231445 70.11352539 C56.18231445 70.60852539 56.18231445 70.60852539 50.12231445 71.11352539 C49.13231445 71.60852539 49.13231445 71.60852539 48.12231445 72.11352539 C47.79231445 87.29352539 47.46231445 102.47352539 47.12231445 118.11352539 C38.86200195 117.95883789 38.86200195 117.95883789 30.43481445 117.80102539 C16.94013489 117.47935965 16.94013489 117.47935965 5.41674805 123.47900391 C3.09227364 126.23888645 1.10722663 129.09674551 -0.87768555 132.11352539 C-3.10424805 134.21508789 -3.10424805 134.21508789 -5.19018555 135.86352539 C-8.94628296 139.02949285 -12.06260482 142.63098882 -15.21362305 146.39086914 C-16.03733398 147.24358398 -16.03733398 147.24358398 -16.87768555 148.11352539 C-17.53768555 148.11352539 -18.19768555 148.11352539 -18.87768555 148.11352539 C-19.27987305 149.07258789 -19.27987305 149.07258789 -19.69018555 150.05102539 C-20.87768555 152.11352539 -20.87768555 152.11352539 -23.87768555 153.11352539 C-23.97122029 135.2587683 -24.04170945 117.404075 -24.08493423 99.54912567 C-24.10553974 91.25833434 -24.13362168 82.96769544 -24.17944336 74.67700195 C-24.21937295 67.44892729 -24.24513299 60.22096306 -24.25403953 52.99278116 C-24.25924397 49.16718274 -24.27143384 45.34190017 -24.30060577 41.5164032 C-24.32787198 37.91141385 -24.33610819 34.30686872 -24.33011627 30.70178604 C-24.33173151 28.75664843 -24.35319552 26.81155856 -24.37536621 24.86654663 C-24.33811912 16.92657095 -23.66544966 10.94491058 -17.8425293 5.05493164 C-17.17350586 4.59989258 -16.50448242 4.14485352 -15.81518555 3.67602539 C-15.14358398 3.20293945 -14.47198242 2.72985352 -13.7800293 2.24243164 C-9.36227071 -0.37919512 -4.9635436 -0.02077856 0 0 Z " fill="#2F2CA1" transform="translate(46.877685546875,17.886474609375)"/>
<path d="M0 0 C15.18 0 30.36 0 46 0 C46 12.87 46 25.74 46 39 C30.82 39 15.64 39 0 39 C0 26.13 0 13.26 0 0 Z " fill="#037EF6" transform="translate(101,97)"/>
<path d="M0 0 C16.17 0 32.34 0 49 0 C49 11.22 49 22.44 49 34 C32.83 34 16.66 34 0 34 C0 22.78 0 11.56 0 0 Z " fill="#0A4DF5" transform="translate(117,55)"/>
<path d="M0 0 C8.25 0 16.5 0 25 0 C25 8.58 25 17.16 25 26 C16.75 26 8.5 26 0 26 C0 17.42 0 8.84 0 0 Z " fill="#2D2B9C" transform="translate(137,18)"/>
<path d="M0 0 C8.25 0 16.5 0 25 0 C25 8.25 25 16.5 25 25 C16.75 25 8.5 25 0 25 C0 16.75 0 8.5 0 0 Z " fill="#0A4CF3" transform="translate(173,44)"/>
<path d="M0 0 C6.53279339 -0.02464347 13.06555998 -0.04283291 19.59838867 -0.05493164 C21.82267732 -0.05997317 24.04696263 -0.06680623 26.27124023 -0.07543945 C29.46078309 -0.08751298 32.65028229 -0.09322996 35.83984375 -0.09765625 C37.34139259 -0.10539818 37.34139259 -0.10539818 38.87327576 -0.11329651 C39.79415482 -0.11337204 40.71503387 -0.11344757 41.66381836 -0.11352539 C42.47878281 -0.115746 43.29374725 -0.11796661 44.13340759 -0.12025452 C46 0 46 0 47 1 C47.09851171 2.83115883 47.12972629 4.66619933 47.125 6.5 C47.12886719 8.00046875 47.12886719 8.00046875 47.1328125 9.53125 C47 12 47 12 46 13 C44.55710213 13.09295815 43.10970215 13.11746513 41.66381836 13.11352539 C40.28249977 13.11341209 40.28249977 13.11341209 38.87327576 13.11329651 C37.87224319 13.10813522 36.87121063 13.10297394 35.83984375 13.09765625 C34.82024063 13.0962413 33.80063751 13.09482635 32.75013733 13.09336853 C29.47922893 13.08775097 26.20838787 13.0751955 22.9375 13.0625 C20.72591244 13.05748726 18.51432382 13.05292396 16.30273438 13.04882812 C10.86846346 13.03777583 5.43424316 13.02049944 0 13 C0 8.71 0 4.42 0 0 Z " fill="#040414" transform="translate(48,71)"/>
<path d="M0 0 C8.25 0 16.5 0 25 0 C25 7.59 25 15.18 25 23 C16.75 23 8.5 23 0 23 C0 15.41 0 7.82 0 0 Z " fill="#0197F1" transform="translate(154,97)"/>
<path d="M0 0 C10.56 0 21.12 0 32 0 C32 3.96 32 7.92 32 12 C31 13 31 13 28.04077148 13.11352539 C26.74727783 13.10828857 25.45378418 13.10305176 24.12109375 13.09765625 C23.09110008 13.09553383 23.09110008 13.09553383 22.04029846 13.09336853 C19.83932199 13.08775479 17.63844591 13.07520007 15.4375 13.0625 C13.94856917 13.05748676 12.45963676 13.05292355 10.97070312 13.04882812 C7.31376925 13.03778093 3.65689442 13.02050713 0 13 C0 8.71 0 4.42 0 0 Z " fill="#010107" transform="translate(48,99)"/>
<path d="M0 0 C4.95 0 9.9 0 15 0 C15 0.66 15 1.32 15 2 C13.62714844 2.03867187 13.62714844 2.03867187 12.2265625 2.078125 C10.44378906 2.16320313 10.44378906 2.16320313 8.625 2.25 C7.44164063 2.29640625 6.25828125 2.3428125 5.0390625 2.390625 C1.88708247 2.65648799 1.88708247 2.65648799 0.5859375 5.046875 C0.39257812 5.69140625 0.19921875 6.3359375 0 7 C0 4.69 0 2.38 0 0 Z " fill="#1249F6" transform="translate(118,56)"/>
</g>
</svg>
